<svg width="32" height="32" viewBox="0 0 32 32" fill="none" xmlns="http://www.w3.org/2000/svg">
<g clip-path="url(#clip0)">
<path d="M30.7782 5.91857L11.1798 1.77099C10.3506 1.59556 9.52873 2.13052 9.3533 2.9597L8.98096 5.3525L31.5943 10.1378L31.9666 7.74504C32.142 6.91617 31.6074 6.09405 30.7782 5.91857Z" fill="white"/>
<path d="M22.5366 10.6452C22.3077 9.82087 21.4462 9.3336 20.6221 9.56215L16.9016 10.595L8.13068 8.73877L7.16607 13.2964L1.13916 14.9692C0.315099 15.1978 -0.172172 16.0593 0.0563785 16.8834L3.4529 29.1229C3.68181 29.947 4.54336 30.4345 5.36742 30.2057L24.8503 24.799C25.6744 24.57 26.1617 23.7089 25.9331 22.8844L25.3501 20.7833L27.5352 21.2453C28.3643 21.421 29.1862 20.886 29.3616 20.0569L30.7441 13.5242L22.8734 11.8586L22.5366 10.6452ZM24.7866 16.8658L25.2684 14.5886C25.3408 14.2476 25.6789 14.0277 26.0198 14.0997L28.297 14.5818C28.6383 14.6542 28.8582 14.9919 28.7862 15.3332L28.3044 17.6105C28.232 17.9514 27.894 18.1717 27.553 18.0994L25.2758 17.6175C24.9342 17.5449 24.7142 17.2068 24.7866 16.8658ZM1.47819 16.1906L6.86986 14.6949L19.5915 11.1646L20.9604 10.7842C20.9854 10.7775 21.0104 10.7743 21.0347 10.7743C21.1445 10.7743 21.2758 10.8463 21.3142 10.9843L21.4749 11.5632L21.9785 13.3778L1.9424 18.9378L1.27809 16.5447C1.23646 16.3946 1.32807 16.2323 1.47819 16.1906ZM24.7113 23.2231C24.737 23.316 24.7101 23.3928 24.6828 23.4408C24.656 23.4888 24.6041 23.5516 24.5112 23.5772L5.0287 28.9839C5.00407 28.9907 4.97876 28.9942 4.9544 28.9942C4.84459 28.9942 4.7133 28.9218 4.67492 28.7838L2.69383 21.6447L22.7299 16.0843L23.952 20.4874L24.7113 23.2231Z" fill="white"/>
<path d="M8.17674 23.7117C8.08325 23.3755 7.73234 23.177 7.39619 23.2702L5.12088 23.9018C4.78503 23.995 4.58623 24.3462 4.67972 24.6824L5.31105 26.9574C5.40454 27.2935 5.75544 27.492 6.0916 27.3985L8.36691 26.7672C8.70307 26.674 8.90155 26.3228 8.80838 25.9867L8.17674 23.7117Z" fill="white"/>
</g>
<defs>
<clipPath id="clip0">
<rect width="32" height="32" fill="white"/>
</clipPath>
</defs>
</svg>
