<svg width="60" height="60" viewBox="0 0 60 60" fill="none" xmlns="http://www.w3.org/2000/svg">
<g clip-path="url(#clip0)">
<path d="M57.7092 11.0972L20.9621 3.32053C19.4074 2.99161 17.8664 3.99465 17.5375 5.54937L16.8394 10.0359L59.2393 19.0084L59.9375 14.5219C60.2664 12.9678 59.2639 11.4263 57.7092 11.0972Z" fill="white"/>
<path d="M42.2558 19.9599C41.8266 18.4142 40.2113 17.5006 38.6661 17.9291L31.6902 19.8657L15.2448 16.3853L13.4361 24.9309L2.13567 28.0674C0.590567 28.496 -0.323067 30.1113 0.105466 31.6565L6.47394 54.6055C6.90316 56.1506 8.51856 57.0648 10.0637 56.6357L46.5941 46.4981C48.1392 46.0689 49.0528 44.4542 48.6243 42.9084L47.5312 38.9687L51.6282 39.8349C53.1829 40.1644 54.7239 39.1614 55.0528 37.6067L57.6449 25.3579L42.8873 22.235L42.2558 19.9599ZM46.4746 31.6235L47.378 27.3537C47.5137 26.7143 48.1476 26.302 48.7869 26.437L53.0567 27.341C53.6966 27.4767 54.109 28.1099 53.974 28.7498L53.0705 33.0197C52.9348 33.659 52.301 34.0719 51.6617 33.9363L47.3919 33.0329C46.7514 32.8967 46.3389 32.2628 46.4746 31.6235ZM2.77137 30.3575L12.8807 27.553L36.7337 20.9336L39.3005 20.2205C39.3474 20.2078 39.3942 20.2018 39.4398 20.2018C39.6457 20.2018 39.8919 20.3369 39.9639 20.5957L40.2652 21.681L41.2095 25.0834L3.64176 35.5085L2.39617 31.0214C2.31813 30.7399 2.48989 30.4355 2.77137 30.3575ZM46.3335 43.5434C46.3816 43.7175 46.3312 43.8615 46.2801 43.9516C46.2297 44.0416 46.1324 44.1594 45.9583 44.2073L9.42857 54.3449C9.38239 54.3576 9.33494 54.3641 9.28925 54.3641C9.08337 54.3641 8.83719 54.2284 8.76523 53.9697L5.05069 40.5839L42.6184 30.1582L44.9097 38.4139L46.3335 43.5434Z" fill="white"/>
<path d="M15.3313 44.4593C15.156 43.829 14.4981 43.4568 13.8678 43.6315L9.60157 44.8158C8.97186 44.9905 8.59911 45.6491 8.7744 46.2794L9.95814 50.545C10.1334 51.1753 10.7914 51.5474 11.4217 51.3721L15.6879 50.1884C16.3182 50.0137 16.6903 49.3552 16.5156 48.7249L15.3313 44.4593Z" fill="white"/>
</g>
<defs>
<clipPath id="clip0">
<rect width="60" height="60" fill="white"/>
</clipPath>
</defs>
</svg>
