<svg width="38" height="38" viewBox="0 0 38 38" fill="none" xmlns="http://www.w3.org/2000/svg">
<g clip-path="url(#clip0)">
<path d="M36.5492 7.0283L13.276 2.10304C12.2914 1.89473 11.3154 2.52999 11.1071 3.51464L10.6649 6.35609L37.5182 12.0387L37.9604 9.19723C38.1687 8.21295 37.5338 7.23668 36.5492 7.0283Z" fill="white"/>
<path d="M26.7621 12.6414C26.4902 11.6624 25.4672 11.0838 24.4886 11.3552L20.0705 12.5817L9.65506 10.3774L8.50959 15.7897L1.35263 17.7761C0.374058 18.0476 -0.204576 19.0706 0.0668274 20.0492L4.10019 34.5836C4.37203 35.5622 5.39512 36.1412 6.37369 35.8694L29.5096 29.4489C30.4882 29.1771 31.0668 28.1544 30.7954 27.1754L30.1031 24.6803L32.6979 25.2289C33.6825 25.4376 34.6585 24.8023 34.8668 23.8177L36.5084 16.0601L27.162 14.0823L26.7621 12.6414ZM29.4339 20.0283L30.0061 17.3241C30.0921 16.9192 30.4935 16.658 30.8984 16.7435L33.6026 17.3161C34.0079 17.402 34.269 17.8031 34.1835 18.2083L33.6114 20.9126C33.5254 21.3175 33.124 21.579 32.7191 21.4931L30.0149 20.921C29.6092 20.8347 29.348 20.4332 29.4339 20.0283ZM1.75523 19.2265L8.15784 17.4503L23.2647 13.2581L24.8904 12.8064C24.92 12.7984 24.9497 12.7946 24.9786 12.7946C25.109 12.7946 25.2649 12.8802 25.3105 13.044L25.5014 13.7314L26.0994 15.8862L2.30648 22.4888L1.5176 19.647C1.46818 19.4687 1.57696 19.276 1.75523 19.2265ZM29.3446 27.5776C29.375 27.6879 29.3431 27.7791 29.3108 27.8361C29.2788 27.8931 29.2172 27.9677 29.107 27.9981L5.97146 34.4186C5.94221 34.4266 5.91216 34.4307 5.88322 34.4307C5.75283 34.4307 5.59692 34.3448 5.55134 34.1809L3.19881 25.7033L26.9917 19.1003L28.4428 24.3289L29.3446 27.5776Z" fill="white"/>
<path d="M9.70993 28.1578C9.59891 27.7586 9.18221 27.5229 8.78302 27.6335L6.08109 28.3836C5.68228 28.4942 5.4462 28.9113 5.55722 29.3105L6.30692 32.012C6.41794 32.4112 6.83464 32.6469 7.23383 32.5359L9.93576 31.7862C10.3349 31.6756 10.5706 31.2585 10.46 30.8593L9.70993 28.1578Z" fill="white"/>
</g>
<defs>
<clipPath id="clip0">
<rect width="38" height="38" fill="white"/>
</clipPath>
</defs>
</svg>
