<svg width="37" height="37" viewBox="0 0 37 37" fill="none" xmlns="http://www.w3.org/2000/svg">
<path d="M26.2083 4.62506C26.6133 4.22015 27.0939 3.89896 27.623 3.67982C28.152 3.46069 28.719 3.3479 29.2917 3.3479C29.8643 3.3479 30.4313 3.46069 30.9604 3.67982C31.4894 3.89896 31.9701 4.22015 32.375 4.62506C32.7799 5.02997 33.1011 5.51066 33.3202 6.0397C33.5394 6.56874 33.6522 7.13576 33.6522 7.70839C33.6522 8.28102 33.5394 8.84804 33.3202 9.37708C33.1011 9.90612 32.7799 10.3868 32.375 10.7917L11.5625 31.6042L3.08334 33.9167L5.39584 25.4376L26.2083 4.62506Z" stroke="white" stroke-width="2" stroke-linecap="round" stroke-linejoin="round"/>
</svg>
