<svg width="60" height="60" viewBox="0 0 60 60" fill="none" xmlns="http://www.w3.org/2000/svg">
<path d="M14.7488 16.3806V35.2987H18.8531V13.6106L31.381 4.99763L43.6298 13.5979V40.2733C44.6759 39.4079 45.7121 38.5312 46.7131 37.6125C47.0582 37.2958 47.3974 36.9747 47.7346 36.6536V16.1589L50.1855 17.8353L52.5022 14.4476L32.5587 0.808628L31.4064 0L30.2322 0.807649L21.0171 7.11514V3.90462H15.8516V10.6522L10.4736 14.3341L12.7923 17.7203L14.7488 16.3806Z" fill="white"/>
<path d="M32.2238 34.8415V32.3828C34.6081 31.8503 36.1279 30.1234 36.1279 27.8957C36.1279 25.6627 34.9189 24.2574 32.1 23.1996C30.2012 22.4404 29.5918 21.993 29.5918 21.3601C29.5918 20.6328 30.2414 20.2001 31.329 20.2001C32.6849 20.2001 33.6022 20.6269 34.1494 20.8824L34.7588 21.1624L35.6384 18.1663L35.2978 17.9959C34.3932 17.5441 33.4519 17.2906 32.3638 17.2093V15.0385H29.5586V17.386C27.2545 17.9298 25.8394 19.549 25.8394 21.6832C25.8394 24.3342 28.0118 25.4772 30.1347 26.2457C32.0828 26.9574 32.352 27.5815 32.352 28.1503C32.352 28.9814 31.5694 29.5189 30.3598 29.5189C29.2453 29.5189 28.0167 29.1713 26.9892 28.5658L26.4821 28.2663L25.603 31.3236L25.8806 31.5086C26.7142 32.0647 28.0671 32.468 29.419 32.5762V34.842H32.2238V34.8415Z" fill="white"/>
<path d="M59.7009 44.3072C59.5908 42.9753 58.6109 41.94 57.1737 40.7946C56.1674 39.9934 54.2187 39.0584 52.0346 39.0584C50.1868 39.0584 47.5089 39.7281 45.2342 42.9141C43.1882 45.526 40.6233 46.5843 38.541 46.9842C38.7275 46.5172 38.8489 45.9567 38.8528 45.1653C38.8709 40.734 35.3403 37.404 30.4577 37.382L13.0276 37.3966C11.3918 37.3966 9.78187 37.8793 8.42453 38.753V36.4852H0.289795V59.9996H8.42404V57.5012C8.73144 57.653 9.15484 57.9604 9.15484 57.9604C10.5553 58.7328 12.7256 59.6814 14.9396 59.6814H30.9521C44.7457 59.6814 54.2686 51.9539 57.722 48.1261C58.7553 46.9812 59.8238 45.7972 59.7009 44.3072ZM5.69957 41.6791H2.85616V38.8352H5.69957V41.6791ZM55.6118 46.2211C52.412 49.7679 43.6052 56.838 30.9521 56.838H14.9396C12.2322 56.838 9.31686 54.7205 9.29043 54.6999C9.04079 54.5159 8.74368 54.4219 8.44411 54.4219C8.43775 54.4219 8.4309 54.4238 8.42355 54.4238V41.894C8.73487 41.8989 9.0452 41.8103 9.30218 41.615L9.613 41.3806C10.5802 40.6458 11.7922 40.2406 13.0203 40.2406L30.4435 40.2254C33.2233 40.2371 36.0231 41.8343 36.0084 45.1535C36.0084 47.0703 34.7304 47.1692 34.6619 47.1858H21.8907C21.1056 47.1858 20.4693 47.8227 20.4693 48.6073C20.4693 49.3919 21.1056 50.0283 21.8907 50.0283H35.4455L36.2008 50.0263C38.3291 50.0258 43.6875 49.5231 47.4952 44.6381C47.5074 44.6214 47.5211 44.6043 47.5324 44.5872C48.7977 42.8045 50.3126 41.9009 52.0337 41.9009C53.5878 41.9009 54.9162 42.6322 55.4013 43.0184C56.8257 44.153 56.8654 44.525 56.8663 44.5397C56.8712 44.8251 55.9559 45.8393 55.6118 46.2211Z" fill="white"/>
</svg>
