<svg width="60" height="60" viewBox="0 0 60 60" fill="none" xmlns="http://www.w3.org/2000/svg">
<g clip-path="url(#clip0)">
<path d="M28.5632 0.742523L24.0371 7.1624C23.2172 8.32561 24.0521 9.9333 25.4739 9.9333H28.2421V40.7583C28.2421 41.7291 29.0291 42.5162 30 42.5162C30.9709 42.5162 31.7578 41.7291 31.7578 40.7583V9.93354H34.5259C35.957 9.93354 36.7764 8.31729 35.9626 7.16276L31.4366 0.742874C30.7459 -0.237518 29.2696 -0.25732 28.5632 0.742523Z" fill="white"/>
<path d="M41.2871 9.55418C40.8013 10.3943 41.0881 11.4698 41.9286 11.9561C49.0672 16.0853 53.8596 23.8041 53.8596 32.6246C53.8596 45.7808 43.1562 56.4843 30 56.4843C16.8438 56.4843 6.14038 45.7808 6.14038 32.6246C6.14038 23.7982 10.9372 16.0829 18.0711 11.9562C18.9116 11.4701 19.1983 10.3943 18.7126 9.5543C18.2265 8.71394 17.1511 8.42683 16.3107 8.91281C8.10081 13.662 2.62463 22.5318 2.62463 32.6246C2.62463 47.7551 14.8683 60 30 60C45.1304 60 57.3753 47.7564 57.3753 32.6246C57.3753 22.5274 51.8953 13.6598 43.689 8.91269C42.8487 8.42672 41.7733 8.71383 41.2871 9.55418Z" fill="white"/>
</g>
<defs>
<clipPath id="clip0">
<rect width="60" height="60" fill="white" transform="translate(0 60) rotate(-90)"/>
</clipPath>
</defs>
</svg>
