<svg width="9" height="9" viewBox="0 0 9 9" fill="none" xmlns="http://www.w3.org/2000/svg">
<g clip-path="url(#clip0)">
<path d="M0.394142 3.22228L4.28083 7.10871C4.33636 7.1643 4.40025 7.19214 4.47252 7.19214C4.54479 7.19214 4.60879 7.1643 4.66435 7.10871L8.55072 3.22228C8.6064 3.16661 8.63415 3.10272 8.63415 3.03042C8.63415 2.95816 8.60631 2.89418 8.55072 2.83862L8.13382 2.42175C8.07823 2.36616 8.01425 2.33838 7.94198 2.33838C7.86971 2.33838 7.80574 2.36616 7.75015 2.42175L4.47252 5.69932L1.19477 2.42154C1.13921 2.36595 1.07521 2.33835 1.00305 2.33835C0.930667 2.33835 0.866694 2.36613 0.811134 2.42154L0.394171 2.83859C0.338611 2.89415 0.311006 2.95816 0.311006 3.0304C0.310977 3.10272 0.338582 3.1667 0.394142 3.22228Z" fill="#0C1E29"/>
</g>
<defs>
<clipPath id="clip0">
<rect width="8.32317" height="8.32317" fill="white" transform="translate(8.63415 8.92676) rotate(-180)"/>
</clipPath>
</defs>
</svg>
