<svg width="35" height="35" viewBox="0 0 35 35" fill="none" xmlns="http://www.w3.org/2000/svg">
<path d="M34.8243 16.3044H33.145V8.57972C33.145 6.7278 31.6384 5.2212 29.7865 5.2212H27.5121L25.1847 1.03649C24.8299 0.396952 24.1549 0 23.4227 0C23.0815 0 22.743 0.0880025 22.444 0.253869L13.5117 5.2211H3.53418C1.68226 5.2211 0.175659 6.72769 0.175659 8.57961V31.6414C0.175659 33.4933 1.68226 34.9999 3.53418 34.9999H29.7865C31.6384 34.9999 33.145 33.4933 33.145 31.6414V24.8685H34.8243V16.3044ZM29.7865 6.56454C30.8209 6.56454 31.6659 7.3504 31.7794 8.35595H29.2551L28.2596 6.56454H29.7865ZM23.0976 1.428C23.4126 1.25137 23.8365 1.37491 24.0104 1.68866L27.7182 8.35532H10.6395L23.0976 1.428ZM31.8016 31.6414C31.8016 32.7524 30.8974 33.6566 29.7864 33.6566H3.53418C2.42317 33.6566 1.519 32.7524 1.519 31.6414V8.57972C1.519 7.46871 2.42317 6.56454 3.53418 6.56454H11.0962L7.87473 8.35605H3.95402C3.58257 8.35605 3.28229 8.65695 3.28229 9.02778C3.28229 9.3986 3.58257 9.6995 3.95402 9.6995H5.45863H30.0021H31.8016V16.305H26.8894C24.6083 16.305 22.7517 18.1616 22.7517 20.4427V20.7316C22.7517 23.0127 24.6084 24.8693 26.8894 24.8693H31.8016V31.6414ZM33.4808 23.5252H33.145H26.8894C25.3485 23.5252 24.0951 22.2718 24.0951 20.7309V20.442C24.0951 18.9011 25.3484 17.6476 26.8894 17.6476H33.145H33.4808V23.5252ZM28.9468 20.6416C28.9468 21.4611 28.2831 22.1247 27.4637 22.1247C26.6442 22.1247 25.9807 21.461 25.9807 20.6416C25.9807 19.8222 26.6443 19.1585 27.4637 19.1585C28.2832 19.1584 28.9468 19.8227 28.9468 20.6416Z" fill="white"/>
</svg>
